<svg xmlns="http://www.w3.org/2000/svg" viewBox="0 0 888 600">
  <path fill="none" d="M231.208 304.801h601.605v36.521H231.208z"/>
  <g fill="#4C566A">
    <path d="M257.247 336.924v1.806h-23.045v-33.927h22.808v1.807h-20.717v13.589h19.482v1.806h-19.482v14.92h20.954zm25.708-22.428c-.237-5.797-4.609-8.695-10.881-8.695-3.849 0-9.313 1.615-9.313 7.223 0 5.465 5.797 6.367 11.546 7.555 5.797 1.188 11.594 2.661 11.594 9.408 0 7.033-6.748 9.551-11.927 9.551-7.935 0-14.397-3.278-14.302-12.021h2.091c-.428 7.412 5.512 10.216 12.211 10.216 4.086 0 9.836-1.853 9.836-7.745 0-5.749-5.797-6.747-11.594-7.936-5.75-1.188-11.546-2.565-11.546-9.027 0-6.51 6.034-9.027 11.404-9.027 7.08 0 12.639 3.041 12.972 10.5h-2.091zm7.795-9.693h2.09v32.121h19.244v1.806H290.75v-33.927zm23.76 0h2.09v33.927h-2.09v-33.927zm8.078 0h2.613l21.43 31.123h.095v-31.123h2.091v33.927h-2.471l-21.572-31.36h-.095v31.36h-2.09v-33.927zm28.559 1.806v-1.807h25.991v1.807h-11.974v32.12h-2.091v-32.12h-11.926zm37.874 0v-1.807h25.991v1.807h-11.974v32.12h-2.091v-32.12h-11.926z"/>
    <path d="M440.292 304.803h2.328l-13.637 19.72v14.207h-2.09v-14.207l-13.542-19.72h2.376l12.259 17.961 12.306-17.961zm4.326 0h14.445c3.849 0 9.883 1.379 9.883 9.504 0 5.939-3.896 9.313-10.644 9.313h-11.594v15.11h-2.09v-33.927zm2.09 17.011h11.927c6.13 0 8.22-4.039 8.22-7.556 0-2.519-1.14-7.649-7.935-7.649h-12.212v15.205zm49.039 15.11v1.806h-23.046v-33.927h22.808v1.807h-20.717v13.589h19.481v1.806h-19.481v14.92h20.955zm25.708-22.428c-.237-5.797-4.608-8.695-10.881-8.695-3.849 0-9.313 1.615-9.313 7.223 0 5.465 5.797 6.367 11.547 7.555 5.797 1.188 11.594 2.661 11.594 9.408 0 7.033-6.747 9.551-11.927 9.551-7.935 0-14.397-3.278-14.302-12.021h2.09c-.427 7.412 5.513 10.216 12.212 10.216 4.087 0 9.836-1.853 9.836-7.745 0-5.749-5.797-6.747-11.594-7.936-5.75-1.188-11.547-2.565-11.547-9.027 0-6.51 6.035-9.027 11.404-9.027 7.08 0 12.639 3.041 12.972 10.5h-2.091zm34.214.428c-.902-5.701-5.892-9.123-11.546-9.123-8.886 0-14.065 7.27-14.065 15.965 0 8.696 5.18 15.966 14.065 15.966 6.604 0 11.736-5.892 12.116-12.212h2.091c-.761 8.078-6.747 14.018-14.207 14.018-10.169 0-16.155-7.84-16.155-17.771 0-9.93 5.986-17.77 16.155-17.77 12.021 0 13.589 10.453 13.637 10.928h-2.091zm7.035-10.121h14.16c5.939 0 10.738 2.186 10.738 8.743 0 4.562-2.756 7.936-7.27 8.696v.094c5.036.57 6.271 3.754 6.604 7.271s-.237 7.317 1.141 9.123h-2.328c-1.283-2.328-.523-6.225-.903-9.503-.428-3.279-2.043-5.939-7.982-5.939h-12.069v15.442h-2.091v-33.927zm14.16 16.678c4.941 0 8.647-2.329 8.647-7.793 0-5.132-4.086-7.079-8.647-7.079h-12.069v14.872h12.069zm15.778-16.678h2.091v33.927h-2.091v-33.927zm8.078 0h14.445c3.849 0 9.883 1.379 9.883 9.504 0 5.939-3.896 9.313-10.644 9.313H602.81v15.11h-2.091v-33.927zm2.091 17.011h11.927c6.13 0 8.22-4.039 8.22-7.556 0-2.519-1.14-7.649-7.935-7.649h-12.212v15.205zm22.335-15.205v-1.807h25.991v1.807h-11.975v32.12h-2.09v-32.12h-11.926zm67.951 8.315c-.902-5.701-5.892-9.123-11.546-9.123-8.886 0-14.065 7.27-14.065 15.965 0 8.696 5.18 15.966 14.065 15.966 6.604 0 11.736-5.892 12.116-12.212h2.091c-.761 8.078-6.747 14.018-14.207 14.018-10.169 0-16.155-7.84-16.155-17.771 0-9.93 5.986-17.77 16.155-17.77 12.021 0 13.589 10.453 13.637 10.928h-2.091zm21.67 24.613c-10.168 0-16.155-7.84-16.155-17.771 0-9.93 5.987-17.77 16.155-17.77 10.121 0 16.108 7.84 16.108 17.77 0 9.931-5.987 17.771-16.108 17.771zm0-1.806c8.839 0 14.018-7.27 14.018-15.966 0-8.695-5.179-15.965-14.018-15.965-8.885 0-14.064 7.27-14.064 15.965-.001 8.697 5.179 15.966 14.064 15.966zm20.577-32.928h2.613l21.43 31.123h.096v-31.123h2.091v33.927h-2.472l-21.571-31.36h-.096v31.36h-2.091v-33.927zm34.309 17.201v16.726h-2.091v-33.927h21.287v1.807h-19.196v13.589h17.296v1.806h-17.296zm22.334-17.201h2.091v33.927h-2.091v-33.927zm37.538 17.297v16.63h-1.806v-7.222h-.095c-1.663 4.941-6.843 8.029-12.829 8.029-10.264 0-15.966-7.84-15.966-17.58 0-9.599 5.797-17.961 16.013-17.961 6.985 0 12.925 4.229 14.112 11.309h-1.995c-1.568-5.846-5.893-9.504-12.069-9.504-9.171 0-13.97 7.697-13.97 16.156 0 8.647 4.656 15.774 13.97 15.774 8.078 0 13.162-5.512 12.829-13.827h-12.496V322.1h14.302z"/>
  </g>
  <path fill="none" d="M323.596 252.44h416.829v36.52H323.596z"/>
  <path d="M338.943 252.443l13.399 33.926h-2.233l-4.276-10.881h-16.25l-4.324 10.881h-2.233l13.637-33.926h2.28zm6.225 21.24l-7.27-19.197h-.095l-7.555 19.197h14.92zm9.6-21.24h14.16c5.939 0 10.738 2.186 10.738 8.743 0 4.562-2.756 7.936-7.27 8.696v.095c5.037.57 6.272 3.754 6.604 7.27s-.237 7.317 1.141 9.123h-2.329c-1.283-2.328-.522-6.225-.903-9.503-.428-3.279-2.043-5.94-7.982-5.94h-12.069v15.443h-2.09v-33.927zm14.16 16.678c4.941 0 8.648-2.329 8.648-7.793 0-5.131-4.086-7.08-8.648-7.08h-12.069v14.873h12.069zm42.196-6.558c-.903-5.702-5.892-9.123-11.546-9.123-8.885 0-14.064 7.27-14.064 15.965 0 8.696 5.179 15.965 14.064 15.965 6.605 0 11.737-5.892 12.117-12.211h2.091c-.76 8.078-6.747 14.017-14.208 14.017-10.168 0-16.155-7.84-16.155-17.771 0-9.931 5.987-17.771 16.155-17.771 12.022 0 13.59 10.453 13.637 10.928h-2.091zm3.376-8.314v-1.806h25.991v1.806h-11.974v32.121h-2.091v-32.121H414.5zm28.321-1.806h2.09v33.926h-2.09v-33.926zm34.497 10.12c-.903-5.702-5.893-9.123-11.547-9.123-8.885 0-14.064 7.27-14.064 15.965 0 8.696 5.18 15.965 14.064 15.965 6.605 0 11.736-5.892 12.117-12.211h2.09c-.76 8.078-6.746 14.017-14.207 14.017-10.168 0-16.155-7.84-16.155-17.771 0-9.931 5.987-17.771 16.155-17.771 12.021 0 13.59 10.453 13.637 10.928h-2.09zm20.245-10.12h2.091v33.926h-2.091v-33.926zm34.498 10.12c-.903-5.702-5.893-9.123-11.547-9.123-8.885 0-14.064 7.27-14.064 15.965 0 8.696 5.18 15.965 14.064 15.965 6.604 0 11.736-5.892 12.117-12.211h2.09c-.76 8.078-6.747 14.017-14.207 14.017-10.168 0-16.155-7.84-16.155-17.771 0-9.931 5.987-17.771 16.155-17.771 12.021 0 13.59 10.453 13.638 10.928h-2.091zm30.08 22v1.806h-23.046v-33.926h22.808v1.806h-20.717v13.589h19.481v1.806h-19.481v14.92h20.955zm38.919-22.427c-.237-5.797-4.608-8.696-10.881-8.696-3.849 0-9.313 1.616-9.313 7.223 0 5.464 5.797 6.367 11.547 7.555 5.797 1.188 11.594 2.661 11.594 9.408 0 7.033-6.747 9.551-11.927 9.551-7.935 0-14.397-3.278-14.302-12.021h2.09c-.427 7.413 5.513 10.216 12.212 10.216 4.087 0 9.836-1.853 9.836-7.745 0-5.749-5.797-6.747-11.594-7.935-5.75-1.188-11.547-2.566-11.547-9.028 0-6.51 6.035-9.028 11.404-9.028 7.08 0 12.639 3.041 12.972 10.501h-2.091zm4.136-7.887v-1.806h25.991v1.806h-11.975v32.121h-2.09v-32.121h-11.926zm30.412-1.806v20.337c0 4.086.855 12.591 10.644 12.591 8.315 0 11.119-4.894 11.119-12.591v-20.337h2.091v20.337c0 8.078-3.041 14.397-13.21 14.397-12.068 0-12.734-9.883-12.734-14.397v-20.337h2.09zm29.843 0h11.119c12.116 0 15.68 8.315 15.68 16.916 0 9.598-4.894 17.011-15.774 17.011h-11.024v-33.927zm2.091 32.12h9.123c6.319 0 13.495-3.469 13.495-15.205 0-13.875-8.886-15.11-13.923-15.11h-8.695v30.315zm29.604-32.12h2.091v33.926h-2.091v-33.926zm22.713 34.734c-10.168 0-16.155-7.84-16.155-17.771 0-9.931 5.987-17.771 16.155-17.771 10.121 0 16.108 7.84 16.108 17.771.001 9.931-5.987 17.771-16.108 17.771zm0-1.806c8.839 0 14.018-7.27 14.018-15.965s-5.179-15.965-14.018-15.965c-8.885 0-14.064 7.27-14.064 15.965 0 8.696 5.18 15.965 14.064 15.965z" fill="#4C566A"/>
  <path d="M224.354 354.767h615.313M224.354 245.233h615.313m-762.433-7.92h125.373v125.373H77.234z" fill="none" stroke="#4C566A" stroke-width="2" stroke-miterlimit="10"/>
  <path fill="#4C566A" d="M144.553 324.116l23.008-46.938h2.219l23.007 46.938h-1.94l-22.176-45.275-22.176 45.275h-1.942zm-10.559 0l-46.938-23.008v-2.217l46.938-23.008v1.94l-45.276 22.175 45.276 22.176v1.942z"/>
</svg>
