<svg xmlns="http://www.w3.org/2000/svg" viewBox="0 0 888 600">
  <path fill="none" d="M243.019 281.739h550.81v36.521h-550.81z"/>
  <g fill="#4C566A">
    <path d="M246.085 304.88c-.333 5.037.522 9.791 7.271 9.791 7.841 0 7.461-5.561 7.461-10.266v-22.67h2.091v23.383c0 3.992.143 11.357-9.314 11.357-9.172 0-9.6-6.51-9.6-11.596h2.091zm35.165-23.145l13.402 33.934h-2.234l-4.277-10.883h-16.253l-4.325 10.883h-2.234l13.64-33.934h2.281zm6.226 21.244l-7.271-19.2h-.095l-7.556 19.2h14.922zm18.294 10.883h.095l11.738-32.127h2.091l-12.689 33.934h-2.424l-12.641-33.934h2.186l11.644 32.127zm26.564-32.127l13.402 33.934h-2.233l-4.277-10.883h-16.253l-4.325 10.883h-2.233l13.64-33.934h2.279zm6.226 21.244l-7.271-19.2h-.095l-7.557 19.2h14.923zm31.742-11.548c-.237-5.798-4.609-8.697-10.882-8.697-3.849 0-9.315 1.616-9.315 7.225 0 5.465 5.798 6.367 11.549 7.555 5.797 1.189 11.595 2.662 11.595 9.41 0 7.035-6.748 9.553-11.928 9.553-7.937 0-14.4-3.279-14.305-12.023h2.091c-.428 7.414 5.513 10.219 12.214 10.219 4.087 0 9.837-1.854 9.837-7.748 0-5.75-5.798-6.748-11.595-7.936-5.75-1.188-11.549-2.566-11.549-9.029 0-6.512 6.035-9.03 11.406-9.03 7.082 0 12.642 3.042 12.975 10.503h-2.093zm34.216.427c-.904-5.703-5.894-9.125-11.549-9.125-8.887 0-14.067 7.271-14.067 15.969s5.181 15.969 14.067 15.969c6.605 0 11.738-5.893 12.119-12.215h2.091c-.761 8.08-6.749 14.02-14.209 14.02-10.171 0-16.158-7.842-16.158-17.773 0-9.934 5.987-17.774 16.158-17.774 12.023 0 13.592 10.456 13.64 10.931h-2.092zm7.029-10.123h14.163c5.94 0 10.741 2.186 10.741 8.745 0 4.562-2.757 7.937-7.271 8.696v.096c5.038.57 6.273 3.754 6.606 7.271.333 3.516-.239 7.318 1.139 9.125h-2.328c-1.283-2.33-.523-6.227-.904-9.506-.427-3.279-2.043-5.941-7.983-5.941h-12.071v15.447h-2.092v-33.933zm14.163 16.682c4.942 0 8.65-2.329 8.65-7.795 0-5.132-4.088-7.08-8.65-7.08h-12.071v14.875h12.071zm15.774-16.682h2.092v33.934h-2.092v-33.934zm8.079 0h14.448c3.849 0 9.885 1.379 9.885 9.506 0 5.939-3.897 9.314-10.646 9.314h-11.595v15.113h-2.093v-33.933zm2.092 17.014h11.928c6.13 0 8.222-4.039 8.222-7.556 0-2.519-1.141-7.651-7.938-7.651h-12.212v15.207zm22.333-15.207v-1.807h25.995v1.807h-11.977v32.127h-2.091v-32.127h-11.927zm63.678 7.889c-.236-5.798-4.609-8.697-10.883-8.697-3.85 0-9.314 1.616-9.314 7.225 0 5.465 5.798 6.367 11.549 7.555 5.797 1.189 11.596 2.662 11.596 9.41 0 7.035-6.748 9.553-11.93 9.553-7.936 0-14.399-3.279-14.305-12.023h2.092c-.428 7.414 5.514 10.219 12.213 10.219 4.088 0 9.839-1.854 9.839-7.748 0-5.75-5.798-6.748-11.597-7.936-5.75-1.188-11.549-2.566-11.549-9.029 0-6.512 6.035-9.03 11.406-9.03 7.082 0 12.642 3.042 12.975 10.503h-2.092zm4.132-7.889v-1.807h25.995v1.807h-11.975v32.127h-2.092v-32.127h-11.928z"/>
    <path d="M593.074 281.735h2.33l-13.641 19.723v14.211h-2.09v-14.211l-13.545-19.723h2.376l12.261 17.965 12.309-17.965zm4.322 0h2.091v32.127h19.247v1.807h-21.338v-33.934zm46.809 32.127v1.807h-23.049v-33.934h22.812v1.807h-20.72v13.592h19.484v1.805h-19.484v14.924h20.957zm46.238-14.828v16.635h-1.806v-7.225h-.095c-1.664 4.943-6.844 8.031-12.832 8.031-10.266 0-15.969-7.842-15.969-17.584 0-9.6 5.798-17.964 16.017-17.964 6.985 0 12.925 4.229 14.114 11.312h-1.996c-1.568-5.846-5.894-9.506-12.072-9.506-9.172 0-13.972 7.699-13.972 16.158 0 8.65 4.657 15.779 13.972 15.779 8.08 0 13.166-5.514 12.833-13.83h-12.499v-1.807h14.305zm7.838-17.299v20.342c0 4.086.855 12.594 10.645 12.594 8.317 0 11.121-4.896 11.121-12.594v-20.342h2.091v20.342c0 8.078-3.041 14.398-13.212 14.398-12.07 0-12.735-9.885-12.735-14.398v-20.342h2.09zm29.842 0h2.092v33.934h-2.092v-33.934zm8.078 0h11.121c12.119 0 15.683 8.316 15.683 16.919 0 9.601-4.895 17.015-15.776 17.015h-11.027v-33.934zm2.092 32.127h9.125c6.32 0 13.496-3.469 13.496-15.208 0-13.877-8.887-15.112-13.924-15.112h-8.697v30.32zm52.654 0v1.807h-23.051v-33.934h22.813v1.807h-20.72v13.592h19.483v1.805h-19.483v14.924h20.958z"/>
  </g>
  <path d="M224.354 351.911h586.412M224.354 248.087h586.412M77.233 237.313h125.373v125.373H77.233z" fill="none" stroke="#4C566A" stroke-width="2" stroke-miterlimit="10"/>
  <path fill="#4C566A" d="M144.553 324.114l23.007-46.938h2.218l23.007 46.938h-1.94l-22.176-45.275-22.177 45.275h-1.939zm-10.56 0l-46.939-23.006v-2.219l46.939-23.007v1.94l-45.276 22.176 45.276 22.176v1.94z"/>
</svg>
