<svg xmlns="http://www.w3.org/2000/svg" viewBox="0 0 888 600">
  <path fill="none" d="M289.395 304.801h456.33v36.521h-456.33z"/>
  <path d="M315.434 336.924v1.807h-23.045v-33.927h22.808v1.806H294.48v13.59h19.482v1.805H294.48v14.92h20.954zm25.708-22.427c-.237-5.798-4.609-8.696-10.881-8.696-3.849 0-9.313 1.616-9.313 7.223 0 5.465 5.797 6.367 11.546 7.556 5.797 1.188 11.594 2.661 11.594 9.407 0 7.033-6.748 9.551-11.927 9.551-7.935 0-14.397-3.277-14.302-12.021h2.091c-.428 7.413 5.512 10.217 12.211 10.217 4.086 0 9.836-1.854 9.836-7.746 0-5.748-5.797-6.746-11.594-7.935-5.75-1.188-11.546-2.565-11.546-9.028 0-6.51 6.034-9.027 11.404-9.027 7.08 0 12.639 3.041 12.972 10.501h-2.091zm7.795-9.693h2.09v32.12h19.244v1.807h-21.334v-33.927zm23.76 0h2.09v33.927h-2.09v-33.927zm8.078 0h2.613l21.43 31.123h.095v-31.123h2.091v33.927h-2.471l-21.572-31.361h-.095v31.361h-2.09v-33.927zm28.559 1.805v-1.806h25.991v1.806h-11.974v32.121h-2.091v-32.121h-11.926zm41.532-1.805h13.589c8.078 0 10.691 4.419 10.691 8.79 0 3.659-2.66 6.748-6.604 7.223l.095.096c.902-.143 7.65 1.473 7.65 8.314 0 6.178-4.752 9.504-11.832 9.504h-13.589v-33.927zm2.091 15.395h11.498c5.654 0 8.602-2.852 8.602-6.985 0-4.894-4.087-6.604-8.602-6.604h-11.498v13.589zm0 16.725h11.498c5.987 0 9.741-2.66 9.741-7.697 0-5.797-5.274-7.223-9.741-7.223h-11.498v14.92zm40.2-32.12l13.399 33.927h-2.232l-4.277-10.882h-16.25l-4.324 10.882h-2.233l13.638-33.927h2.279zm6.225 21.239l-7.271-19.196h-.095l-7.555 19.196h14.921zm31.743-11.546c-.238-5.798-4.609-8.696-10.881-8.696-3.85 0-9.314 1.616-9.314 7.223 0 5.465 5.797 6.367 11.547 7.556 5.797 1.188 11.594 2.661 11.594 9.407 0 7.033-6.746 9.551-11.926 9.551-7.936 0-14.398-3.277-14.303-12.021h2.09c-.426 7.413 5.514 10.217 12.213 10.217 4.086 0 9.836-1.854 9.836-7.746 0-5.748-5.797-6.746-11.594-7.935-5.75-1.188-11.547-2.565-11.547-9.028 0-6.51 6.035-9.027 11.404-9.027 7.08 0 12.639 3.041 12.971 10.501h-2.09zm30.84 22.427v1.807H538.92v-33.927h22.807v1.806H541.01v13.59h19.482v1.805H541.01v14.92h20.955zm43.195-22c-.902-5.701-5.891-9.123-11.545-9.123-8.887 0-14.066 7.271-14.066 15.966 0 8.696 5.18 15.966 14.066 15.966 6.604 0 11.736-5.893 12.115-12.212h2.092c-.762 8.077-6.748 14.017-14.207 14.017-10.17 0-16.156-7.84-16.156-17.771s5.986-17.771 16.156-17.771c12.021 0 13.588 10.453 13.637 10.928h-2.092zm21.67 24.613c-10.168 0-16.154-7.84-16.154-17.771s5.986-17.771 16.154-17.771c10.121 0 16.109 7.84 16.109 17.771s-5.988 17.771-16.109 17.771zm0-1.805c8.84 0 14.018-7.27 14.018-15.966 0-8.695-5.178-15.966-14.018-15.966-8.885 0-14.064 7.271-14.064 15.966 0 8.697 5.179 15.966 14.064 15.966zm20.578-32.928h2.613l21.43 31.123h.096v-31.123h2.09v33.927h-2.471l-21.572-31.361h-.096v31.361h-2.09v-33.927zm34.309 17.2v16.727h-2.09v-33.927h21.287v1.806h-19.197v13.59h17.297v1.805h-17.297zm22.334-17.2h2.092v33.927h-2.092v-33.927zM741.59 322.1v16.631h-1.807v-7.223h-.094c-1.664 4.941-6.844 8.029-12.83 8.029-10.264 0-15.965-7.84-15.965-17.58 0-9.598 5.797-17.961 16.012-17.961 6.986 0 12.926 4.229 14.113 11.309h-1.996c-1.568-5.844-5.893-9.504-12.068-9.504-9.172 0-13.971 7.698-13.971 16.156 0 8.648 4.656 15.775 13.971 15.775 8.078 0 13.162-5.512 12.828-13.828h-12.496V322.1h14.303z" fill="#4C566A"/>
  <path fill="none" d="M309.145 252.44h416.83v36.52h-416.83z"/>
  <path d="M324.493 252.441l13.399 33.927h-2.233l-4.276-10.882h-16.25l-4.324 10.882h-2.233l13.637-33.927h2.28zm6.224 21.241l-7.27-19.197h-.095l-7.555 19.197h14.92zm9.6-21.241h14.16c5.939 0 10.738 2.186 10.738 8.743 0 4.562-2.756 7.936-7.27 8.695v.095c5.037.57 6.272 3.754 6.604 7.271.333 3.516-.237 7.317 1.141 9.123h-2.329c-1.283-2.328-.522-6.225-.903-9.503-.428-3.279-2.043-5.94-7.982-5.94h-12.069v15.443h-2.09v-33.927zm14.16 16.679c4.941 0 8.648-2.329 8.648-7.793 0-5.132-4.086-7.08-8.648-7.08h-12.069v14.873h12.069zm42.196-6.557c-.903-5.702-5.892-9.123-11.546-9.123-8.885 0-14.064 7.27-14.064 15.965 0 8.696 5.179 15.966 14.064 15.966 6.605 0 11.737-5.892 12.117-12.212h2.091c-.76 8.078-6.747 14.018-14.208 14.018-10.168 0-16.155-7.84-16.155-17.771 0-9.931 5.987-17.771 16.155-17.771 12.022 0 13.59 10.453 13.637 10.929h-2.091zm3.376-8.316v-1.806h25.991v1.806h-11.974v32.121h-2.091v-32.121h-11.926zm28.322-1.806h2.09v33.927h-2.09v-33.927zm34.496 10.122c-.902-5.702-5.892-9.123-11.547-9.123-8.885 0-14.064 7.27-14.064 15.965 0 8.696 5.179 15.966 14.064 15.966 6.605 0 11.737-5.892 12.117-12.212h2.091c-.761 8.078-6.747 14.018-14.208 14.018-10.167 0-16.155-7.84-16.155-17.771 0-9.931 5.987-17.771 16.155-17.771 12.022 0 13.59 10.453 13.638 10.929h-2.091zm20.246-10.122h2.09v33.927h-2.09v-33.927zm34.496 10.122c-.902-5.702-5.893-9.123-11.547-9.123-8.885 0-14.064 7.27-14.064 15.965 0 8.696 5.18 15.966 14.064 15.966 6.605 0 11.736-5.892 12.117-12.212h2.09c-.76 8.078-6.746 14.018-14.207 14.018-10.168 0-16.154-7.84-16.154-17.771 0-9.931 5.986-17.771 16.154-17.771 12.021 0 13.59 10.453 13.639 10.929h-2.092zm30.08 22v1.806h-23.045v-33.927h22.807v1.806h-20.717v13.59h19.482v1.806h-19.482v14.92h20.955zm38.92-22.428c-.238-5.797-4.609-8.695-10.881-8.695-3.85 0-9.314 1.615-9.314 7.223 0 5.464 5.797 6.367 11.547 7.555 5.797 1.188 11.594 2.661 11.594 9.408 0 7.032-6.746 9.551-11.926 9.551-7.936 0-14.398-3.278-14.303-12.021h2.09c-.426 7.412 5.514 10.216 12.213 10.216 4.086 0 9.836-1.854 9.836-7.745 0-5.749-5.797-6.747-11.594-7.936-5.75-1.188-11.547-2.565-11.547-9.027 0-6.51 6.035-9.028 11.404-9.028 7.08 0 12.639 3.041 12.971 10.501h-2.09zm4.137-7.888v-1.806h25.99v1.806h-11.975v32.121h-2.09v-32.121h-11.925zm30.412-1.806v20.337c0 4.087.855 12.592 10.643 12.592 8.316 0 11.119-4.895 11.119-12.592v-20.337h2.092v20.337c0 8.078-3.041 14.397-13.211 14.397-12.068 0-12.734-9.884-12.734-14.397v-20.337h2.091zm29.842 0h11.119c12.117 0 15.68 8.315 15.68 16.916 0 9.598-4.893 17.011-15.773 17.011H651v-33.927zm2.092 32.122h9.123c6.318 0 13.494-3.469 13.494-15.205 0-13.875-8.885-15.11-13.922-15.11h-8.695v30.315zm29.603-32.122h2.092v33.927h-2.092v-33.927zm22.713 34.735c-10.168 0-16.154-7.84-16.154-17.771 0-9.931 5.986-17.771 16.154-17.771 10.121 0 16.109 7.84 16.109 17.771.001 9.931-5.988 17.771-16.109 17.771zm0-1.806c8.84 0 14.018-7.27 14.018-15.966 0-8.695-5.178-15.965-14.018-15.965-8.885 0-14.064 7.27-14.064 15.965 0 8.697 5.179 15.966 14.064 15.966z" fill="#4C566A"/>
  <path d="M224.354 354.767h586.412M224.354 245.233h586.412m-733.532-7.92h125.373v125.373H77.234z" fill="none" stroke="#4C566A" stroke-width="2" stroke-miterlimit="10"/>
  <path fill="#4C566A" d="M144.553 324.116l23.008-46.938h2.219l23.007 46.938h-1.94l-22.176-45.275-22.176 45.275h-1.942zm-10.559 0l-46.938-23.008v-2.217l46.938-23.008v1.94l-45.276 22.175 45.276 22.176v1.942z"/>
</svg>
