<svg xmlns="http://www.w3.org/2000/svg" viewBox="0 0 888 600">
  <path fill="none" d="M353.888 304.801h327.346v36.521H353.888z"/>
  <path d="M379.926 336.924v1.806H356.88v-33.927h22.808v1.806h-20.717v13.59h19.481v1.806h-19.481v14.92h20.955zm25.708-22.428c-.237-5.797-4.608-8.695-10.881-8.695-3.849 0-9.313 1.616-9.313 7.223 0 5.464 5.797 6.367 11.547 7.555 5.797 1.188 11.594 2.661 11.594 9.408 0 7.032-6.747 9.551-11.927 9.551-7.935 0-14.397-3.278-14.302-12.021h2.09c-.427 7.413 5.513 10.216 12.212 10.216 4.087 0 9.836-1.853 9.836-7.745 0-5.749-5.797-6.747-11.594-7.935-5.75-1.188-11.547-2.566-11.547-9.028 0-6.51 6.035-9.028 11.404-9.028 7.08 0 12.639 3.041 12.972 10.501h-2.091zm7.795-9.693h2.091v32.121h19.244v1.806h-21.335v-33.927zm23.759 0h2.091v33.927h-2.091v-33.927zm8.079 0h2.613l21.43 31.123h.096v-31.123h2.091v33.927h-2.472l-21.571-31.36h-.096v31.36h-2.091v-33.927zm28.56 1.805v-1.806h25.991v1.806h-11.975v32.121h-2.09v-32.121h-11.926zm67.951 8.316c-.902-5.702-5.892-9.123-11.546-9.123-8.886 0-14.064 7.271-14.064 15.966s5.179 15.965 14.064 15.965c6.604 0 11.736-5.892 12.116-12.211h2.091c-.761 8.077-6.747 14.017-14.207 14.017-10.169 0-16.155-7.84-16.155-17.771s5.986-17.771 16.155-17.771c12.021 0 13.589 10.454 13.637 10.929h-2.091zm21.67 24.613c-10.168 0-16.155-7.84-16.155-17.771s5.987-17.771 16.155-17.771c10.121 0 16.108 7.841 16.108 17.771s-5.987 17.771-16.108 17.771zm0-1.806c8.839 0 14.018-7.27 14.018-15.965s-5.179-15.966-14.018-15.966c-8.885 0-14.064 7.271-14.064 15.966s5.179 15.965 14.064 15.965zm20.577-32.928h2.613l21.43 31.123h.096v-31.123h2.091v33.927h-2.472l-21.571-31.36h-.096v31.36h-2.091v-33.927zm34.309 17.201v16.726h-2.091v-33.927h21.287v1.806h-19.196v13.59h17.296v1.806h-17.296zm22.334-17.201h2.091v33.927h-2.091v-33.927zm37.538 17.296v16.631H676.4v-7.223h-.095c-1.663 4.941-6.843 8.03-12.829 8.03-10.264 0-15.966-7.84-15.966-17.581 0-9.598 5.797-17.961 16.013-17.961 6.985 0 12.925 4.229 14.112 11.309h-1.995c-1.568-5.844-5.893-9.503-12.069-9.503-9.171 0-13.97 7.698-13.97 16.155 0 8.648 4.656 15.775 13.97 15.775 8.078 0 13.162-5.512 12.829-13.827h-12.496v-1.806h14.302z" fill="#4C566A"/>
  <path fill="none" d="M309.146 252.439h416.83v36.521h-416.83z"/>
  <path d="M324.493 252.441l13.399 33.927h-2.233l-4.276-10.881h-16.25l-4.324 10.881h-2.233l13.637-33.927h2.28zm6.225 21.241l-7.27-19.196h-.096l-7.555 19.196h14.921zm9.599-21.241h14.16c5.939 0 10.738 2.187 10.738 8.743 0 4.562-2.756 7.936-7.27 8.695v.096c5.036.569 6.271 3.753 6.604 7.27s-.237 7.317 1.141 9.123h-2.328c-1.283-2.328-.523-6.225-.903-9.503-.428-3.279-2.043-5.939-7.982-5.939h-12.069v15.442h-2.091v-33.927zm14.161 16.679c4.941 0 8.647-2.328 8.647-7.793 0-5.132-4.086-7.08-8.647-7.08h-12.069v14.873h12.069zm42.196-6.557c-.902-5.702-5.892-9.123-11.546-9.123-8.886 0-14.064 7.271-14.064 15.966s5.179 15.965 14.064 15.965c6.604 0 11.736-5.892 12.116-12.211h2.091c-.761 8.077-6.747 14.017-14.207 14.017-10.169 0-16.155-7.84-16.155-17.771s5.986-17.771 16.155-17.771c12.021 0 13.589 10.454 13.637 10.929h-2.091zm3.377-8.316v-1.806h25.991v1.806h-11.975v32.121h-2.09v-32.121h-11.926zm28.321-1.806h2.091v33.927h-2.091v-33.927zm34.497 10.122c-.902-5.702-5.892-9.123-11.546-9.123-8.886 0-14.064 7.271-14.064 15.966s5.179 15.965 14.064 15.965c6.604 0 11.736-5.892 12.116-12.211h2.091c-.761 8.077-6.747 14.017-14.207 14.017-10.169 0-16.155-7.84-16.155-17.771s5.986-17.771 16.155-17.771c12.021 0 13.589 10.454 13.637 10.929h-2.091zm20.246-10.122h2.091v33.927h-2.091v-33.927zm34.497 10.122c-.902-5.702-5.892-9.123-11.546-9.123-8.886 0-14.065 7.271-14.065 15.966s5.18 15.965 14.065 15.965c6.604 0 11.736-5.892 12.116-12.211h2.091c-.761 8.077-6.747 14.017-14.207 14.017-10.169 0-16.155-7.84-16.155-17.771s5.986-17.771 16.155-17.771c12.021 0 13.589 10.454 13.637 10.929h-2.091zm30.081 22v1.806h-23.046v-33.927h22.808v1.806h-20.717v13.59h19.481v1.806h-19.481v14.92h20.955zm38.919-22.428c-.237-5.797-4.609-8.695-10.881-8.695-3.849 0-9.313 1.616-9.313 7.223 0 5.464 5.797 6.367 11.547 7.555 5.797 1.188 11.594 2.661 11.594 9.408 0 7.032-6.747 9.551-11.927 9.551-7.935 0-14.397-3.278-14.302-12.021h2.09c-.427 7.413 5.513 10.216 12.212 10.216 4.087 0 9.836-1.853 9.836-7.745 0-5.749-5.797-6.747-11.594-7.935-5.75-1.188-11.547-2.566-11.547-9.028 0-6.51 6.035-9.028 11.404-9.028 7.08 0 12.639 3.041 12.972 10.501h-2.091zm4.137-7.888v-1.806h25.991v1.806h-11.975v32.121h-2.09v-32.121h-11.926zm30.412-1.806v20.337c0 4.087.855 12.592 10.644 12.592 8.315 0 11.119-4.894 11.119-12.592v-20.337h2.091v20.337c0 8.078-3.041 14.397-13.21 14.397-12.068 0-12.734-9.883-12.734-14.397v-20.337h2.09zm29.843 0h11.119c12.116 0 15.68 8.315 15.68 16.916 0 9.599-4.894 17.011-15.774 17.011h-11.024v-33.927zm2.091 32.122h9.123c6.32 0 13.495-3.469 13.495-15.205 0-13.875-8.886-15.11-13.923-15.11h-8.695v30.315zm29.604-32.122h2.091v33.927h-2.091v-33.927zm22.713 34.735c-10.168 0-16.155-7.84-16.155-17.771s5.987-17.771 16.155-17.771c10.121 0 16.108 7.841 16.108 17.771s-5.987 17.771-16.108 17.771zm0-1.806c8.839 0 14.018-7.27 14.018-15.965s-5.179-15.966-14.018-15.966c-8.885 0-14.064 7.271-14.064 15.966s5.179 15.965 14.064 15.965z" fill="#4C566A"/>
  <path d="M224.354 354.767h586.413M224.354 245.233h586.413" fill="#4C566A" stroke="#4C566A" stroke-width="2" stroke-miterlimit="10"/>
  <path fill="none" stroke="#4C566A" stroke-width="2" stroke-miterlimit="10" d="M77.233 237.313h125.373v125.373H77.233z"/>
  <path fill="#4C566A" d="M144.554 324.115l23.008-46.938h2.218l23.007 46.938h-1.939l-22.176-45.274-22.177 45.274h-1.941zm-10.561 0l-46.939-23.007v-2.217l46.939-23.008v1.939l-45.275 22.176 45.275 22.176v1.941z"/>
</svg>
