<svg xmlns="http://www.w3.org/2000/svg" width="1112.413" height="201.414" viewBox="0 0 1112.413 201.414">
  <path fill="none" d="M252.227 77.768h834.561v55.334H252.227z"/>
  <g fill="#2E3440">
    <path d="M256.835 112.829c-.504 7.633.792 14.834 11.017 14.834 11.881 0 11.305-8.425 11.305-15.554V77.763h3.168v35.427c0 6.049.216 17.209-14.113 17.209-13.897 0-14.545-9.864-14.545-17.569h3.168zm53.281-35.066l20.306 51.412h-3.384l-6.481-16.489h-24.626l-6.553 16.489h-3.384l20.666-51.412h3.456zm9.433 32.186l-11.017-29.091h-.144l-11.449 29.091h22.61zm27.719 16.489h.144l17.786-48.676h3.168l-19.226 51.412h-3.672l-19.154-51.412h3.313l17.641 48.676zm40.248-48.675l20.306 51.412h-3.384l-6.48-16.489h-24.626l-6.553 16.489h-3.384l20.666-51.412h3.455zm9.433 32.186l-11.017-29.091h-.144l-11.449 29.091h22.61zm48.095-17.498c-.359-8.784-6.984-13.177-16.489-13.177-5.832 0-14.113 2.448-14.113 10.945 0 8.28 8.785 9.648 17.498 11.448 8.784 1.801 17.569 4.033 17.569 14.258 0 10.657-10.224 14.473-18.073 14.473-12.025 0-21.818-4.968-21.674-18.217h3.168c-.648 11.232 8.353 15.481 18.506 15.481 6.192 0 14.905-2.809 14.905-11.737 0-8.713-8.785-10.225-17.569-12.025-8.713-1.8-17.498-3.888-17.498-13.681 0-9.865 9.145-13.682 17.281-13.682 10.729 0 19.155 4.608 19.659 15.913h-3.17zm51.842.649c-1.369-8.641-8.93-13.825-17.498-13.825-13.465 0-21.314 11.017-21.314 24.194s7.85 24.194 21.314 24.194c10.008 0 17.785-8.929 18.361-18.506h3.168c-1.152 12.241-10.225 21.241-21.529 21.241-15.41 0-24.482-11.881-24.482-26.93 0-15.05 9.072-26.931 24.482-26.931 18.217 0 20.594 15.842 20.666 16.562h-3.168zm10.65-15.337h21.459c9 0 16.273 3.312 16.273 13.249 0 6.912-4.178 12.024-11.018 13.177v.145c7.633.863 9.506 5.688 10.01 11.017s-.361 11.089 1.727 13.825h-3.527c-1.943-3.528-.793-9.433-1.369-14.401-.646-4.969-3.096-9.001-12.096-9.001h-18.289v23.402h-3.17V77.763zm21.459 25.273c7.488 0 13.105-3.528 13.105-11.809 0-7.776-6.193-10.729-13.105-10.729h-18.289v22.537h18.289zm23.901-25.273h3.17v51.412h-3.17V77.763zm12.24 0h21.891c5.832 0 14.977 2.088 14.977 14.401 0 9-5.904 14.112-16.129 14.112h-17.568v22.898h-3.17V77.763zm3.17 25.778h18.072c9.289 0 12.457-6.121 12.457-11.449 0-3.816-1.729-11.593-12.025-11.593h-18.504v23.042zm33.838-23.042v-2.736h39.387v2.736h-18.146v48.676h-3.168V80.499h-18.073zm96.482 11.952c-.359-8.784-6.984-13.177-16.49-13.177-5.832 0-14.113 2.448-14.113 10.945 0 8.28 8.785 9.648 17.498 11.448 8.785 1.801 17.57 4.033 17.57 14.258 0 10.657-10.225 14.473-18.074 14.473-12.025 0-21.818-4.968-21.674-18.217h3.168c-.648 11.232 8.354 15.481 18.506 15.481 6.193 0 14.906-2.809 14.906-11.737 0-8.713-8.785-10.225-17.57-12.025-8.713-1.8-17.498-3.888-17.498-13.681 0-9.865 9.145-13.682 17.281-13.682 10.73 0 19.154 4.608 19.658 15.913h-3.168zm6.26-11.952v-2.736h39.387v2.736h-18.145v48.676h-3.168V80.499h-18.074z"/>
    <path d="M782.577 77.763h3.529l-20.666 29.882v21.53h-3.168v-21.53l-20.521-29.882h3.6l18.578 27.218 18.648-27.218zm6.549 0h3.168v48.676h29.162v2.736h-32.33V77.763zm70.922 48.675v2.736h-34.922V77.763h34.563v2.736h-31.395v20.594h29.523v2.735h-29.523v22.61h31.754zm70.058-22.465v25.202h-2.736V118.23h-.145c-2.52 7.489-10.369 12.169-19.441 12.169-15.555 0-24.195-11.881-24.195-26.642 0-14.546 8.785-27.219 24.268-27.219 10.584 0 19.584 6.409 21.385 17.138h-3.023c-2.377-8.856-8.93-14.401-18.291-14.401-13.896 0-21.17 11.665-21.17 24.482 0 13.104 7.057 23.906 21.17 23.906 12.242 0 19.947-8.354 19.443-20.954h-18.938v-2.736h21.673zm11.875-26.21v30.818c0 6.192 1.297 19.082 16.129 19.082 12.602 0 16.85-7.417 16.85-19.082V77.763h3.168v30.818c0 12.241-4.607 21.817-20.018 21.817-18.289 0-19.297-14.977-19.297-21.817V77.763h3.168zm45.215 0h3.17v51.412h-3.17V77.763zm12.241 0h16.85c18.361 0 23.762 12.601 23.762 25.634 0 14.545-7.416 25.778-23.904 25.778h-16.707V77.763zm3.169 48.675h13.824c9.576 0 20.449-5.257 20.449-23.042 0-21.025-13.465-22.897-21.098-22.897h-13.176v45.939zm79.778 0v2.736h-34.924V77.763h34.564v2.736h-31.395v20.594h29.521v2.735h-29.521v22.61h31.755z"/>
  </g>
  <path d="M223.909 184.09h888.504M223.909 26.779h888.504M1 10.455h189.959v189.959H1z" fill="none" stroke="#2E3440" stroke-width="2" stroke-miterlimit="10"/>
  <path fill="none" d="M152.916-308.455h98.566v122.887h-98.566z"/>
  <path fill="#2E3440" d="M103 141.973l34.86-71.118h3.361l34.859 71.118h-2.939l-33.6-68.599-33.601 68.599H103zm-16 0l-71.12-34.859v-3.359L87 68.895v2.939l-68.6 33.6 68.6 33.6v2.939z"/>
</svg>
